<svg xmlns="http://www.w3.org/2000/svg" xmlns:xlink="http://www.w3.org/1999/xlink" width="296pt" height="404pt" viewBox="0.00 0.00 296.00 404.00">
<g id="graph0" class="graph" transform="scale(1 1) rotate(0) translate(4 400)">
<title>G</title>
<polygon fill="white" stroke="none" points="-4,4 -4,-400 292,-400 292,4 -4,4"/>
<!-- 0 -->
<g id="node1" class="node">
<title>0</title>
<ellipse fill="none" stroke="black" cx="27" cy="-378" rx="27" ry="18"/>
<text text-anchor="middle" x="27" y="-373.8" font-family="Times,serif" font-size="14.00">0</text>
</g>
<!-- 0&#45;&gt;0 -->
<g id="edge1" class="edge">
<title>0-&gt;0</title>
<path fill="none" stroke="black" d="M46.9,-390.43C59.69,-393.68 72,-389.53 72,-378 72,-369.98 66.05,-365.54 58.12,-364.66"/>
<polygon fill="black" stroke="black" points="58.09,-361.15 48.4,-365.45 58.65,-368.13 58.09,-361.15"/>
</g>
<!-- 99 -->
<g id="node2" class="node">
<title>99</title>
<ellipse fill="none" stroke="black" cx="117" cy="-378" rx="27" ry="18"/>
<text text-anchor="middle" x="117" y="-373.8" font-family="Times,serif" font-size="14.00">99</text>
</g>
<!-- 891 -->
<g id="node3" class="node">
<title>891</title>
<ellipse fill="none" stroke="black" cx="117" cy="-306" rx="27" ry="18"/>
<text text-anchor="middle" x="117" y="-301.8" font-family="Times,serif" font-size="14.00">891</text>
</g>
<!-- 99&#45;&gt;891 -->
<g id="edge2" class="edge">
<title>99-&gt;891</title>
<path fill="none" stroke="black" d="M117,-359.7C117,-352.41 117,-343.73 117,-335.54"/>
<polygon fill="black" stroke="black" points="120.5,-335.62 117,-325.62 113.5,-335.62 120.5,-335.62"/>
</g>
<!-- 792 -->
<g id="node5" class="node">
<title>792</title>
<ellipse fill="none" stroke="black" cx="153" cy="-234" rx="27" ry="18"/>
<text text-anchor="middle" x="153" y="-229.8" font-family="Times,serif" font-size="14.00">792</text>
</g>
<!-- 891&#45;&gt;792 -->
<g id="edge10" class="edge">
<title>891-&gt;792</title>
<path fill="none" stroke="black" d="M125.35,-288.76C129.58,-280.55 134.81,-270.37 139.58,-261.09"/>
<polygon fill="black" stroke="black" points="142.54,-262.99 144,-252.49 136.32,-259.79 142.54,-262.99"/>
</g>
<!-- 198 -->
<g id="node4" class="node">
<title>198</title>
<ellipse fill="none" stroke="black" cx="189" cy="-306" rx="27" ry="18"/>
<text text-anchor="middle" x="189" y="-301.8" font-family="Times,serif" font-size="14.00">198</text>
</g>
<!-- 198&#45;&gt;792 -->
<g id="edge3" class="edge">
<title>198-&gt;792</title>
<path fill="none" stroke="black" d="M180.65,-288.76C176.42,-280.55 171.19,-270.37 166.42,-261.09"/>
<polygon fill="black" stroke="black" points="169.68,-259.79 162,-252.49 163.46,-262.99 169.68,-259.79"/>
</g>
<!-- 693 -->
<g id="node7" class="node">
<title>693</title>
<ellipse fill="none" stroke="black" cx="189" cy="-162" rx="27" ry="18"/>
<text text-anchor="middle" x="189" y="-157.8" font-family="Times,serif" font-size="14.00">693</text>
</g>
<!-- 792&#45;&gt;693 -->
<g id="edge9" class="edge">
<title>792-&gt;693</title>
<path fill="none" stroke="black" d="M161.35,-216.76C165.58,-208.55 170.81,-198.37 175.58,-189.09"/>
<polygon fill="black" stroke="black" points="178.54,-190.99 180,-180.49 172.32,-187.79 178.54,-190.99"/>
</g>
<!-- 297 -->
<g id="node6" class="node">
<title>297</title>
<ellipse fill="none" stroke="black" cx="225" cy="-234" rx="27" ry="18"/>
<text text-anchor="middle" x="225" y="-229.8" font-family="Times,serif" font-size="14.00">297</text>
</g>
<!-- 297&#45;&gt;693 -->
<g id="edge4" class="edge">
<title>297-&gt;693</title>
<path fill="none" stroke="black" d="M216.65,-216.76C212.42,-208.55 207.19,-198.37 202.42,-189.09"/>
<polygon fill="black" stroke="black" points="205.68,-187.79 198,-180.49 199.46,-190.99 205.68,-187.79"/>
</g>
<!-- 594 -->
<g id="node9" class="node">
<title>594</title>
<ellipse fill="none" stroke="black" cx="225" cy="-90" rx="27" ry="18"/>
<text text-anchor="middle" x="225" y="-85.8" font-family="Times,serif" font-size="14.00">594</text>
</g>
<!-- 693&#45;&gt;594 -->
<g id="edge8" class="edge">
<title>693-&gt;594</title>
<path fill="none" stroke="black" d="M197.35,-144.76C201.58,-136.55 206.81,-126.37 211.58,-117.09"/>
<polygon fill="black" stroke="black" points="214.54,-118.99 216,-108.49 208.32,-115.79 214.54,-118.99"/>
</g>
<!-- 396 -->
<g id="node8" class="node">
<title>396</title>
<ellipse fill="none" stroke="black" cx="261" cy="-162" rx="27" ry="18"/>
<text text-anchor="middle" x="261" y="-157.8" font-family="Times,serif" font-size="14.00">396</text>
</g>
<!-- 396&#45;&gt;594 -->
<g id="edge5" class="edge">
<title>396-&gt;594</title>
<path fill="none" stroke="black" d="M252.65,-144.76C248.42,-136.55 243.19,-126.37 238.42,-117.09"/>
<polygon fill="black" stroke="black" points="241.68,-115.79 234,-108.49 235.46,-118.99 241.68,-115.79"/>
</g>
<!-- 495 -->
<g id="node10" class="node">
<title>495</title>
<ellipse fill="none" stroke="black" cx="225" cy="-18" rx="27" ry="18"/>
<text text-anchor="middle" x="225" y="-13.8" font-family="Times,serif" font-size="14.00">495</text>
</g>
<!-- 594&#45;&gt;495 -->
<g id="edge7" class="edge">
<title>594-&gt;495</title>
<path fill="none" stroke="black" d="M225,-71.7C225,-64.41 225,-55.73 225,-47.54"/>
<polygon fill="black" stroke="black" points="228.5,-47.62 225,-37.62 221.5,-47.62 228.5,-47.62"/>
</g>
<!-- 495&#45;&gt;495 -->
<g id="edge6" class="edge">
<title>495-&gt;495</title>
<path fill="none" stroke="black" d="M244.9,-30.43C257.69,-33.68 270,-29.53 270,-18 270,-9.98 264.05,-5.54 256.12,-4.66"/>
<polygon fill="black" stroke="black" points="256.09,-1.15 246.4,-5.45 256.65,-8.13 256.09,-1.15"/>
</g>
</g>
</svg>